<?xml version="1.0" standalone="no"?>
<!DOCTYPE svg PUBLIC "-//W3C//DTD SVG 20010904//EN"
 "http://www.w3.org/TR/2001/REC-SVG-20010904/DTD/svg10.dtd">
<svg version="1.0" xmlns="http://www.w3.org/2000/svg"
 width="1000.000000pt" height="1000.000000pt" viewBox="0 0 1000.000000 1000.000000"
 preserveAspectRatio="xMidYMid meet">

<g transform="translate(0.000000,1000.000000) scale(0.100000,-0.100000)"
fill="#000000" stroke="none">
<path d="M4788 7042 c-1250 -2166 -1988 -3445 -1988 -3448 0 -2 765 -4 1700
-4 l1699 0 40 -67 39 -68 -1782 -3 -1782 -2 -24 -43 c-13 -23 -59 -102 -102
-176 -43 -74 -77 -136 -75 -138 2 -2 989 -2 2194 -1 l2191 3 -202 350 c-112
193 -474 820 -806 1395 -331 575 -622 1078 -646 1118 l-44 73 44 76 44 75 34
-58 c19 -33 420 -728 892 -1546 l858 -1488 204 0 c112 0 204 2 204 4 0 2 -250
438 -556 967 -306 530 -795 1378 -1086 1884 -292 506 -536 926 -542 933 -9 9
-23 -8 -62 -75 -28 -49 -365 -632 -749 -1298 -384 -665 -743 -1288 -798 -1382
l-99 -173 -84 0 c-46 0 -84 2 -84 4 0 2 394 688 876 1523 482 835 882 1530
890 1545 13 26 10 33 -78 185 -50 87 -96 166 -102 175 -10 14 -44 -39 -218
-340z m711 -2237 l490 -850 -494 -3 c-271 -1 -718 -1 -993 0 l-500 3 312 540
c171 297 394 683 495 858 101 175 187 315 191 310 5 -4 229 -390 499 -858z"/>
</g>
</svg>
